<svg width="107" height="108" viewBox="0 0 107 108" fill="none" xmlns="http://www.w3.org/2000/svg">
    <path d="M100.438 79.213L100.438 63.6713L53.3975 91.899L53.3998 107.256L100.438 79.213Z" fill="#A9983F" />
    <path d="M6.02106 79.213L6.02104 63.6713L53.3975 91.899L53.3952 107.256L6.02106 79.213Z" fill="#80732F" />
    <path
        d="M51.8465 91.8141L6.23366 65.0133C5.21864 64.4169 5.22995 62.9453 6.25402 62.3646L52.6442 36.0579C53.1135 35.7918 53.6883 35.7926 54.1568 36.0601L100.231 62.3668C101.25 62.9485 101.262 64.4136 100.252 65.0109L54.9531 91.8094C53.9955 92.376 52.8058 92.3777 51.8465 91.8141Z"
        fill="#EBC28E" />
    <path d="M100.438 62.5411L100.438 46.9994L53.3975 75.2271L53.3998 90.5838L100.438 62.5411Z" fill="#A9983F" />
    <path d="M6.02106 62.541L6.02104 46.9993L53.3975 75.227L53.3952 90.584L6.02106 62.541Z" fill="#80732F" />
    <path
        d="M51.8465 75.1422L6.23366 48.3414C5.21864 47.745 5.22995 46.2735 6.25402 45.6927L52.6442 19.386C53.1135 19.1199 53.6883 19.1207 54.1568 19.3882L100.231 45.6949C101.25 46.2766 101.262 47.7417 100.252 48.3391L54.9531 75.1376C53.9955 75.7041 52.8058 75.7059 51.8465 75.1422Z"
        fill="#EBC28E" />
    <path d="M100.426 45.8676L100.426 30.3259L53.3862 58.5537L53.3886 73.9103L100.426 45.8676Z" fill="#A9983F" />
    <path d="M6.00983 45.8676L6.00981 30.3259L53.3862 58.5537L53.3839 73.9107L6.00983 45.8676Z" fill="#80732F" />
    <path
        d="M51.1393 60.3343L6.66468 34.2022C3.70278 32.4619 3.73578 28.1677 6.72408 26.4731L51.1989 1.25252C52.5683 0.475966 54.2456 0.478426 55.6127 1.259L99.7847 26.4795C102.758 28.177 102.791 32.4521 99.8442 34.1953L55.672 60.3275C54.2748 61.1541 52.5389 61.1567 51.1393 60.3343Z"
        fill="url(#paint0_radial_12_33)" />
    <path opacity="0.6"
        d="M49.8159 46.4614L22.9681 31.4633C21.9145 30.8748 21.9259 29.3549 22.9881 28.7822L49.8964 14.2747C51.7139 13.2948 53.903 13.2979 55.7176 14.283L82.4313 28.7843C83.4884 29.3581 83.4998 30.8714 82.4514 31.4611L55.7978 46.4527C53.9413 47.4969 51.6754 47.5002 49.8159 46.4614Z"
        stroke="#B3936C" stroke-width="0.764614" />
    <path opacity="0.6"
        d="M49.5574 37.8405L39.3149 31.5801C38.3303 30.9783 38.3416 29.5445 39.3355 28.9582L49.6399 22.8797C51.563 21.7453 53.9516 21.7488 55.8714 22.8891L66.0938 28.9605C67.0824 29.5477 67.0937 30.975 66.1143 31.5777L55.9534 37.8307C53.993 39.0371 51.5214 39.0409 49.5574 37.8405Z"
        stroke="#B3936C" stroke-width="0.764614" />
    <defs>
        <radialGradient id="paint0_radial_12_33" cx="0" cy="0" r="1" gradientUnits="userSpaceOnUse"
            gradientTransform="translate(53.226 30.8335) rotate(90) scale(30.8335 53.226)">
            <stop offset="0.0604165" stop-color="#F7F1FE" />
            <stop offset="1" stop-color="#EBC28E" />
        </radialGradient>
    </defs>
</svg>