<svg width="80" height="80" viewBox="0 0 84 85" fill="none" xmlns="http://www.w3.org/2000/svg">
    <g clip-path="url(#clip0_12_50)">
        <path
            d="M41.9115 84.1896C65.0595 84.1896 83.8246 65.3432 83.8246 42.0951C83.8246 18.8469 65.0595 0.000488281 41.9115 0.000488281C18.7636 0.000488281 -0.00146484 18.8469 -0.00146484 42.0951C-0.00146484 65.3432 18.7636 84.1896 41.9115 84.1896Z"
            fill="#A9983F" />
        <path d="M43.2183 10.524V33.8602L62.8571 42.6738L43.2183 10.524Z" fill="white" fill-opacity="0.602" />
        <path d="M43.2201 10.524L23.5786 42.6738L43.2201 33.8602V10.524Z" fill="white" />
        <path d="M43.2183 57.7965V73.653L62.8702 46.3468L43.2183 57.7965Z" fill="white" fill-opacity="0.602" />
        <path d="M43.2201 73.653V57.7939L23.5786 46.3468L43.2201 73.653Z" fill="white" />
        <path d="M43.2183 54.1264L62.8571 42.674L43.2183 33.8657V54.1264Z" fill="white" fill-opacity="0.2" />
        <path d="M23.5786 42.674L43.2201 54.1264V33.8657L23.5786 42.674Z" fill="white" fill-opacity="0.602" />
    </g>
    <defs>
        <clipPath id="clip0_12_50">
            <rect width="83.826" height="84.1891" fill="white" />
        </clipPath>
    </defs>
</svg>