<svg version="1.1" id="Layer_1" xmlns="http://www.w3.org/2000/svg" xmlns:xlink="http://www.w3.org/1999/xlink" x="0px"
	y="0px" width="100%" viewBox="0 0 512 512" enable-background="new 0 0 512 512" xml:space="preserve">
	<path fill="none" opacity="1.000000" stroke="none" d="
M1.000001,505.000000 
	C1.000000,337.047089 1.000000,169.094147 1.000000,1.070611 
	C171.571747,1.070611 342.143555,1.070611 513.000000,1.070611 
	C513.000000,168.691467 513.000000,336.383087 512.696838,504.826874 
	C512.121460,505.387543 511.755035,505.255676 511.590485,504.995941 
	C501.350494,488.834930 491.083588,472.690674 480.937561,456.470734 
	C478.841766,453.120239 476.417847,451.867462 472.231873,451.873383 
	C360.104218,452.032410 247.976273,452.000000 135.848373,452.000000 
	C104.026047,452.000000 72.203575,452.041809 40.381634,451.930389 
	C37.444798,451.920135 35.738079,452.654358 34.100643,455.247955 
	C23.871901,471.449646 13.424931,487.513733 3.000894,503.591400 
	C2.589175,504.226440 1.678309,504.537811 1.000001,505.000000 
M387.500000,422.000000 
	C410.980896,422.000000 434.461792,422.000000 458.648743,422.000000 
	C456.566101,418.732178 455.113068,416.430786 453.639069,414.142914 
	C444.484161,399.933167 435.004700,385.916718 426.365326,371.400269 
	C423.842163,367.160706 421.418793,365.914978 416.846771,365.919464 
	C310.236603,366.023560 203.626266,366.000000 97.015968,366.000000 
	C96.016495,366.000000 94.877258,365.689789 94.046463,366.064178 
	C92.279953,366.860077 90.077499,367.615051 89.100410,369.083344 
	C83.486862,377.518951 78.200439,386.171661 72.762268,394.724762 
	C67.111778,403.611816 61.414906,412.469421 55.315872,422.000000 
	C166.359909,422.000000 276.429962,422.000000 387.500000,422.000000 
M117.002899,325.495178 
	C114.894478,328.801636 112.786057,332.108124 110.523575,335.656189 
	C208.511353,335.656189 305.679932,335.656189 403.487030,335.656189 
	C400.101562,330.251373 397.109039,325.336823 393.982269,320.509247 
	C386.362457,308.744446 378.319550,297.232117 371.222961,285.161896 
	C368.803070,281.046051 366.462280,279.864685 362.063568,279.914246 
	C343.905701,280.118896 325.744171,280.000000 307.583984,280.000000 
	C255.269333,280.000000 202.954605,279.970917 150.640289,280.102570 
	C148.464691,280.108063 145.293213,280.964844 144.275528,282.526337 
	C135.146698,296.533661 126.396980,310.788116 117.002899,325.495178 
M340.501923,237.001160 
	C332.071594,223.860870 323.531494,210.788620 315.304718,197.522095 
	C313.685028,194.910126 312.082123,193.938629 309.101501,193.945862 
	C274.287842,194.030380 239.473618,193.946838 204.660873,194.143097 
	C202.741989,194.153915 200.135651,195.772781 199.035416,197.430420 
	C191.830765,208.285263 184.981995,219.375641 177.957108,230.350754 
	C173.912476,236.669754 169.755615,242.916885 165.266983,249.780945 
	C226.744949,249.780945 287.250610,249.780945 348.539001,249.780945 
	C345.811157,245.391785 343.387848,241.492645 340.501923,237.001160 
M124.453758,72.970230 
	C141.559814,90.130798 158.665878,107.291367 175.657806,124.337425 
	C183.668167,116.335312 191.191208,108.820015 198.256042,101.762451 
	C179.896957,83.403252 161.335770,64.841949 142.286240,45.792294 
	C136.276398,51.940170 130.214844,58.540760 123.691795,64.648476 
	C120.331879,67.794449 120.500282,69.955383 124.453758,72.970230 
M360.500000,102.000008 
	C370.618011,91.879555 380.734589,81.757652 390.855530,71.640182 
	C392.381226,70.115028 394.327911,68.784454 391.898682,66.378410 
	C384.962860,59.508793 378.097351,52.568142 371.383270,45.835037 
	C352.466064,64.748856 333.926331,83.285278 316.296356,100.912086 
	C323.679749,108.312569 331.261871,115.912216 338.931366,123.599472 
	C345.660645,116.860382 352.830353,109.680214 360.500000,102.000008 
M241.003891,82.286003 
	C241.601776,82.856148 242.194580,83.917000 242.798309,83.923248 
	C252.746704,84.026215 262.696472,83.996445 272.781006,83.996445 
	C272.781006,57.495964 272.781006,31.425514 272.781006,5.222603 
	C262.156433,5.222603 251.751862,5.222603 241.000275,5.222603 
	C241.000275,30.735474 241.000275,56.027336 241.003891,82.286003 
M95.503311,166.000000 
	C90.404373,166.000000 85.305443,166.000000 80.288544,166.000000 
	C80.288544,176.980499 80.288544,187.385284 80.288544,197.713181 
	C106.646301,197.713181 132.714523,197.713181 158.711243,197.713181 
	C158.711243,187.019150 158.711243,176.614288 158.711243,166.000000 
	C137.782745,166.000000 117.142281,166.000000 95.503311,166.000000 
M360.599823,166.000000 
	C358.825775,166.000000 357.051727,166.000000 355.256470,166.000000 
	C355.256470,176.913681 355.256470,187.318420 355.256470,197.742508 
	C381.583557,197.742508 407.653290,197.742508 433.739471,197.742508 
	C433.739471,187.078140 433.739471,176.673279 433.739471,166.000000 
	C409.512238,166.000000 385.544495,166.000000 360.599823,166.000000 
M281.998627,145.497238 
	C273.886536,132.834808 265.774414,120.172371 256.970825,106.430565 
	C244.342377,126.206169 232.481110,144.780441 220.427948,163.655182 
	C245.177658,163.655182 269.015167,163.655182 293.513031,163.655182 
	C289.625793,157.416504 286.076477,151.720139 281.998627,145.497238 
z" />
	<path fill="#9B923B" opacity="1.000000" stroke="none" d="
M1.000001,505.399994 
	C1.678309,504.537811 2.589175,504.226440 3.000894,503.591400 
	C13.424931,487.513733 23.871901,471.449646 34.100643,455.247955 
	C35.738079,452.654358 37.444798,451.920135 40.381634,451.930389 
	C72.203575,452.041809 104.026047,452.000000 135.848373,452.000000 
	C247.976273,452.000000 360.104218,452.032410 472.231873,451.873383 
	C476.417847,451.867462 478.841766,453.120239 480.937561,456.470734 
	C491.083588,472.690674 501.350494,488.834930 511.590485,504.995941 
	C511.755035,505.255676 512.121460,505.387543 512.696838,505.289520 
	C513.000000,506.066681 513.000000,507.133331 512.537354,508.600006 
	C341.716461,509.000000 171.358231,509.000000 1.000000,509.000000 
	C1.000000,507.933319 1.000000,506.866669 1.000001,505.399994 
z" />
	<path fill="none" opacity="1.000000" stroke="none" d="
M1.000000,509.500000 
	C171.358231,509.000000 341.716461,509.000000 512.537354,509.000000 
	C513.000000,510.332062 513.000000,511.664093 513.000000,512.997070 
	C342.333344,512.998047 171.666672,512.998047 1.000000,512.997559 
	C1.000000,511.997986 1.000000,510.998993 1.000000,509.500000 
z" />
	<path fill="#9B923B" opacity="1.000000" stroke="none" d="
M387.000000,422.000000 
	C276.429962,422.000000 166.359909,422.000000 55.315872,422.000000 
	C61.414906,412.469421 67.111778,403.611816 72.762268,394.724762 
	C78.200439,386.171661 83.486862,377.518951 89.100410,369.083344 
	C90.077499,367.615051 92.279953,366.860077 94.046463,366.064178 
	C94.877258,365.689789 96.016495,366.000000 97.015968,366.000000 
	C203.626266,366.000000 310.236603,366.023560 416.846771,365.919464 
	C421.418793,365.914978 423.842163,367.160706 426.365326,371.400269 
	C435.004700,385.916718 444.484161,399.933167 453.639069,414.142914 
	C455.113068,416.430786 456.566101,418.732178 458.648743,422.000000 
	C434.461792,422.000000 410.980896,422.000000 387.000000,422.000000 
z" />
	<path fill="#9B923B" opacity="1.000000" stroke="none" d="
M117.269363,325.232544 
	C126.396980,310.788116 135.146698,296.533661 144.275528,282.526337 
	C145.293213,280.964844 148.464691,280.108063 150.640289,280.102570 
	C202.954605,279.970917 255.269333,280.000000 307.583984,280.000000 
	C325.744171,280.000000 343.905701,280.118896 362.063568,279.914246 
	C366.462280,279.864685 368.803070,281.046051 371.222961,285.161896 
	C378.319550,297.232117 386.362457,308.744446 393.982269,320.509247 
	C397.109039,325.336823 400.101562,330.251373 403.487030,335.656189 
	C305.679932,335.656189 208.511353,335.656189 110.523575,335.656189 
	C112.786057,332.108124 114.894478,328.801636 117.269363,325.232544 
z" />
	<path fill="#9B923B" opacity="1.000000" stroke="none" d="
M340.733246,237.297333 
	C343.387848,241.492645 345.811157,245.391785 348.539001,249.780945 
	C287.250610,249.780945 226.744949,249.780945 165.266983,249.780945 
	C169.755615,242.916885 173.912476,236.669754 177.957108,230.350754 
	C184.981995,219.375641 191.830765,208.285263 199.035416,197.430420 
	C200.135651,195.772781 202.741989,194.153915 204.660873,194.143097 
	C239.473618,193.946838 274.287842,194.030380 309.101501,193.945862 
	C312.082123,193.938629 313.685028,194.910126 315.304718,197.522095 
	C323.531494,210.788620 332.071594,223.860870 340.733246,237.297333 
z" />
	<path fill="#9B923B" opacity="1.000000" stroke="none" d="
M124.207695,72.705353 
	C120.500282,69.955383 120.331879,67.794449 123.691795,64.648476 
	C130.214844,58.540760 136.276398,51.940170 142.286240,45.792294 
	C161.335770,64.841949 179.896957,83.403252 198.256042,101.762451 
	C191.191208,108.820015 183.668167,116.335312 175.657806,124.337425 
	C158.665878,107.291367 141.559814,90.130798 124.207695,72.705353 
z" />
	<path fill="#9B923B" opacity="1.000000" stroke="none" d="
M360.250000,102.250031 
	C352.830353,109.680214 345.660645,116.860382 338.931366,123.599472 
	C331.261871,115.912216 323.679749,108.312569 316.296356,100.912086 
	C333.926331,83.285278 352.466064,64.748856 371.383270,45.835037 
	C378.097351,52.568142 384.962860,59.508793 391.898682,66.378410 
	C394.327911,68.784454 392.381226,70.115028 390.855530,71.640182 
	C380.734589,81.757652 370.618011,91.879555 360.250000,102.250031 
z" />
	<path fill="#9B923B" opacity="1.000000" stroke="none" d="
M241.002075,81.802597 
	C241.000275,56.027336 241.000275,30.735474 241.000275,5.222603 
	C251.751862,5.222603 262.156433,5.222603 272.781006,5.222603 
	C272.781006,31.425514 272.781006,57.495964 272.781006,83.996445 
	C262.696472,83.996445 252.746704,84.026215 242.798309,83.923248 
	C242.194580,83.917000 241.601776,82.856148 241.002075,81.802597 
z" />
	<path fill="#9B923B" opacity="1.000000" stroke="none" d="
M96.002563,166.000000 
	C117.142281,166.000000 137.782745,166.000000 158.711243,166.000000 
	C158.711243,176.614288 158.711243,187.019150 158.711243,197.713181 
	C132.714523,197.713181 106.646301,197.713181 80.288544,197.713181 
	C80.288544,187.385284 80.288544,176.980499 80.288544,166.000000 
	C85.305443,166.000000 90.404373,166.000000 96.002563,166.000000 
z" />
	<path fill="#9B923B" opacity="1.000000" stroke="none" d="
M361.088318,166.000000 
	C385.544495,166.000000 409.512238,166.000000 433.739471,166.000000 
	C433.739471,176.673279 433.739471,187.078140 433.739471,197.742508 
	C407.653290,197.742508 381.583557,197.742508 355.256470,197.742508 
	C355.256470,187.318420 355.256470,176.913681 355.256470,166.000000 
	C357.051727,166.000000 358.825775,166.000000 361.088318,166.000000 
z" />
	<path fill="#9B923B" opacity="1.000000" stroke="none" d="
M282.262878,145.760498 
	C286.076477,151.720139 289.625793,157.416504 293.513031,163.655182 
	C269.015167,163.655182 245.177658,163.655182 220.427948,163.655182 
	C232.481110,144.780441 244.342377,126.206169 256.970825,106.430565 
	C265.774414,120.172371 273.886536,132.834808 282.262878,145.760498 
z" />
</svg>