<svg width="40" height="40" viewBox="0 0 40 40" fill="none" xmlns="http://www.w3.org/2000/svg">
    <path
        d="M34.375 26.4203L20 34.8031L5.625 26.4203C5.34039 26.2786 5.01246 26.2506 4.70798 26.3422C4.4035 26.4337 4.14534 26.6378 3.98606 26.913C3.82677 27.1882 3.77833 27.5137 3.85058 27.8233C3.92284 28.133 4.11037 28.4034 4.375 28.5796L19.375 37.3296C19.5661 37.4411 19.7834 37.4998 20.0047 37.4998C20.226 37.4998 20.4432 37.4411 20.6344 37.3296L35.6344 28.5796C35.7785 28.4981 35.9049 28.3888 36.0064 28.258C36.1079 28.1273 36.1824 27.9776 36.2256 27.8178C36.2687 27.658 36.2798 27.4913 36.258 27.3272C36.2362 27.1631 36.182 27.0049 36.0986 26.862C36.0152 26.719 35.9043 26.594 35.7722 26.4942C35.6401 26.3944 35.4895 26.3219 35.3291 26.2808C35.1688 26.2397 35.0019 26.2309 34.8381 26.2548C34.6743 26.2788 34.5169 26.335 34.375 26.4203Z"
        fill="#9b923b" />
    <path
        d="M34.375 18.9203L20 27.3031L5.625 18.9203C5.34039 18.7786 5.01246 18.7506 4.70798 18.8422C4.4035 18.9337 4.14534 19.1378 3.98606 19.413C3.82677 19.6882 3.77833 20.0137 3.85058 20.3233C3.92284 20.633 4.11037 20.9034 4.375 21.0796L19.375 29.8296C19.5661 29.9411 19.7834 29.9998 20.0047 29.9998C20.226 29.9998 20.4432 29.9411 20.6344 29.8296L35.6344 21.0796C35.7785 20.9981 35.9049 20.8888 36.0064 20.758C36.1079 20.6273 36.1824 20.4776 36.2256 20.3178C36.2687 20.158 36.2798 19.9913 36.258 19.8272C36.2362 19.6631 36.182 19.5049 36.0986 19.362C36.0152 19.219 35.9043 19.094 35.7722 18.9942C35.6401 18.8944 35.4895 18.8219 35.3291 18.7808C35.1688 18.7397 35.0019 18.7309 34.8381 18.7548C34.6743 18.7788 34.5169 18.835 34.375 18.9203Z"
        fill="#9b923b" />
    <path
        d="M4.37498 13.5798L19.375 22.3298C19.5661 22.4413 19.7834 22.5 20.0047 22.5C20.2259 22.5 20.4432 22.4413 20.6344 22.3298L35.6344 13.5798C35.8231 13.4697 35.9796 13.3121 36.0884 13.1227C36.1972 12.9332 36.2545 12.7186 36.2545 12.5001C36.2545 12.2817 36.1972 12.067 36.0884 11.8776C35.9796 11.6881 35.8231 11.5305 35.6344 11.4204L20.6344 2.67043C20.4432 2.55897 20.2259 2.50024 20.0047 2.50024C19.7834 2.50024 19.5661 2.55897 19.375 2.67043L4.37498 11.4204C4.18629 11.5305 4.02974 11.6881 3.92094 11.8776C3.81214 12.067 3.75488 12.2817 3.75488 12.5001C3.75488 12.7186 3.81214 12.9332 3.92094 13.1227C4.02974 13.3121 4.18629 13.4697 4.37498 13.5798Z"
        fill="#9b923b" />
</svg>