<svg width="695" height="1024" viewBox="0 0 695 1024" fill="none" xmlns="http://www.w3.org/2000/svg">
    <g opacity="0.9">
        <path opacity="0.9"
            d="M729.202 2.15976L716.83 -5.91571L715.78 -6.63479L711.854 -8.95788L714.456 -7.46444L708.568 -11.1703L699.894 -15.9825L702.176 -14.5997C691.585 -20.5734 680.765 -25.662 669.626 -30.6954C622.148 -44.2468 573.163 -49.8886 488.798 -51.6033C645.065 -42.2556 698.798 -15.2635 716.739 -5.97108C720.985 -3.31611 725.093 -0.66114 729.202 2.15976Z"
            fill="#9b923b" />
        <path opacity="0.9"
            d="M323.08 1075.26L326.732 1076.81C335.406 1080.35 346.134 1084.39 354.443 1087.54C362.751 1090.7 374.575 1093.79 383.204 1096.28C270.443 1063.1 174.254 988.038 97.2849 873.763L118.924 906.121C121.617 909.827 124.037 913.09 126.274 916.077C134.263 926.144 143.759 937.87 153.665 949.264C159.646 955.901 167.087 963.866 177.359 974.873C182.654 980.017 188.863 985.936 195.208 991.467C234.141 1026.98 277.243 1055.22 323.08 1075.26Z"
            fill="#9b923b" />
        <path opacity="0.9"
            d="M32.8704 734.489C122.531 990.914 347.003 1089.04 426.255 1105.08H427.396C431.596 1105.69 436.846 1106.35 440.863 1106.85L449.217 1107.73H449.811C403.018 1102.48 81.3073 987.485 8.90308 633.6C9.72481 638.855 10.501 643.999 11.2771 648.755C16.664 673.425 24.9727 705.671 31.8662 730.285L32.8704 734.489Z"
            fill="#9b923b" />
        <path opacity="0.9"
            d="M477.841 1109.89H483.456H496.878C459.763 1109.12 -71.4903 865.19 14.3813 369.596C11.4596 383.535 8.58349 402.341 6.11828 416.445C3.74437 434.422 1.78134 458.704 0.137866 476.846C-8.67298 921.608 429.222 1104.14 477.841 1109.89Z"
            fill="#9b923b" />
        <path opacity="0.9"
            d="M62.0887 226.394C-153.709 730.451 450.771 1086.38 523.175 1108.51H524.681L527.831 1108.23H529.338L541.207 1106.85H542.622C456.979 1027.97 352.801 985.162 270.262 900.203C229.86 858.719 135.269 761.481 79.9386 631.498C-30.6764 371.532 67.7953 205.597 116.095 134.19L111.119 141.269L102.856 152.498C90.0734 173.793 74.0038 202.997 62.4994 225.509L62.0887 226.394Z"
            fill="#9b923b" />
        <path opacity="0.9"
            d="M375.673 -59.0145H376.541L374.212 -58.3507C368.871 -56.9126 361.749 -54.5895 356.454 -52.8196C345.497 -49.1137 331.025 -43.6931 320.389 -38.8257C313.906 -35.8388 305.186 -31.9117 298.795 -28.593C291.125 -24.6106 281.036 -18.9134 273.504 -14.6544C265.971 -10.3954 255.654 -3.59203 248.304 1.44135C239.63 7.58096 228.947 15.5459 219.406 22.9576C121.711 104.377 44.5588 235.078 55.0588 382.484C80.2587 730.064 405.119 968.458 527.421 1058.17C569.74 1089.26 569.74 1089.26 572.205 1101.43H573.027C579.738 1099.93 588.184 1097.78 594.849 1095.9H595.533C597.953 1094.9 599.688 1090.75 601.286 1088.43C595.762 1075.49 584.851 1066.3 526.005 1019.45C374.714 899.373 222.465 761.26 133.398 565.511C-67.152 123.736 321.849 -104.813 488.479 -50.9943C456.523 -66.6475 417.262 -68.3622 375.673 -59.0145Z"
            fill="#9b923b" />
        <path opacity="0.9"
            d="M544.813 969.508C636.847 1048.33 658.943 1067.08 629.68 1084.5L630.639 1084.17L645.202 1078.64L655.336 1074.27C696.423 1051.09 660.632 1018.96 574.806 942.461C479.85 857.778 361.656 752.354 261.359 598.145C-34.6491 142.929 281.309 -82.1904 488.843 -51.3264C253.005 -113.276 -254.464 285.246 544.813 969.508Z"
            fill="#9b923b" />
        <path opacity="0.9"
            d="M598.956 880.899C706.284 980.46 746.549 1018.02 693.273 1055.19L694.506 1054.52C703.636 1049.32 714.547 1042.24 723.084 1036.93C764.673 1007.51 748.056 973.325 723.906 940.801C622.924 804.734 488.798 714.576 385.35 581.938C52.4096 154.821 275.785 -57.4659 488.843 -51.5476C271.768 -75.5529 -116.275 216.549 598.956 880.899Z"
            fill="#9b923b" />
        <path opacity="0.9"
            d="M681.906 798.373C784.212 897.935 820.643 951.089 766.089 1004.74C775.219 996.777 787.271 985.549 796.538 977.086C801.103 972.384 806.125 967.351 810.827 962.373C853.284 915.247 829.453 889.804 543.9 585.091C129.972 143.371 316.507 -12.6082 451.409 -45.1869C329.015 -17.7522 -12.0966 124.565 681.906 798.373Z"
            fill="#9b923b" />
        <path opacity="0.9"
            d="M662.823 603.897C832.512 769.335 896.243 845.056 840.867 927.25L841.962 925.867C850.636 914.805 861.091 899.594 869.354 888.2L869.856 887.425C918.156 810.653 872.001 729.953 672.776 542.39C153.073 53.1574 428.4 -38.3836 488.843 -51.5479C444.789 -44.7998 75.4639 30.9773 662.823 603.897Z"
            fill="#9b923b" />
        <path opacity="0.9"
            d="M697.929 471.536C889.942 645.326 942.807 734.157 906.879 823.043C908.34 820.111 909.755 817.512 911.125 814.359L912.494 811.538C913.453 809.491 914.366 807.555 915.233 805.62L926.235 780.066C927.559 776.747 928.883 773.483 930.116 770.331C973.029 651.244 810.599 507.987 702.769 412.906C351.522 103.16 392.334 -10.5613 488.843 -51.7133C406.669 -25.5508 262.637 77.4397 697.929 471.536Z"
            fill="#9b923b" />
        <path opacity="0.9"
            d="M707.335 336.63C874.969 479.722 975.404 575.411 954.495 694.83C955.499 690.792 956.503 686.754 957.462 682.772C960.84 667.893 964.173 651.133 966.867 637.803C981.247 518.772 880.127 428.061 713.269 289.947C603.202 198.738 398.27 28.9308 488.844 -51.5479C346.911 28.9861 618.176 260.521 707.335 336.63Z"
            fill="#9b923b" />
        <path opacity="0.9"
            d="M719.615 231.372C908.523 379.884 972.71 447.088 976.089 549.47C976.089 547.479 976.088 545.432 976.408 543.441L977.001 518.44L976.545 494.269C976.545 491.448 976.317 488.738 976.226 485.972C968.967 378.723 850.911 290.224 701.674 178.494C596.674 99.8958 477.705 10.7886 488.844 -51.5479C439.722 11.4523 608.133 143.813 719.615 231.372Z"
            fill="#9b923b" />
        <path opacity="0.9"
            d="M707.425 136.623C881.405 256.318 946.916 314.395 967.642 402.119C965.04 386.964 960.794 367.716 957.233 351.454C956.411 348.08 955.635 344.761 954.768 341.387C926.509 252.28 831.507 188.284 667.16 83.3576C550.747 9.1845 512.445 -19.8542 488.751 -51.5479C502.401 -4.4222 588.41 54.7614 707.425 136.623Z"
            fill="#9b923b" />
        <path opacity="0.9"
            d="M930.024 264.117C929.294 262.347 928.609 260.577 927.879 258.586L917.973 234.912L911.307 220.752L907.564 213.009C885.103 170.806 844.564 139.334 786.494 102.385C690.625 41.5423 587.68 0.611496 488.843 -51.8794C519.704 -28.0953 576.358 3.4324 648.077 43.3122C838.309 149.566 897.2 195.364 930.024 264.117Z"
            fill="#9b923b" />
        <path opacity="0.9"
            d="M870.677 148.847C869.809 147.464 868.942 146.192 867.983 144.809L866.203 142.21C865.472 141.159 864.742 140.052 863.966 139.002C856.798 128.824 848.672 117.928 842.19 109.078C799.642 56.3103 680.764 2.21541 488.843 -51.3264C779.966 54.1532 836.301 103.713 870.677 148.847Z"
            fill="#9b923b" />
        <path opacity="0.9"
            d="M790.877 52.6596C783.755 46.0221 775.949 39.1082 769.283 33.0792L765.129 29.7052C718.975 -5.63904 626.073 -32.9631 488.843 -51.5479C574.212 -36.2265 726.873 -1.76724 796.903 58.6333L790.877 52.6596Z"
            fill="#9b923b" />
    </g>
</svg>